<svg height="101" viewBox="0 0 101 101" width="101" xmlns="http://www.w3.org/2000/svg"><path d="m94.605 5.507c-3.671-3.671-8.093-5.507-13.261-5.507h-62.574c-5.168 0-9.59 1.836-13.262 5.507-3.672 3.672-5.508 8.094-5.508 13.262v62.574c0 5.168 1.836 9.59 5.508 13.262s8.094 5.508 13.262 5.508h62.574c5.168 0 9.59-1.836 13.261-5.508 3.672-3.672 5.508-8.094 5.508-13.262v-62.574c0-5.168-1.836-9.59-5.508-13.262zm-79.16 78.313h15.059v-45.234h-15.059zm13.692-53.609c-1.567 1.5-3.629 2.25-6.196 2.25h-.062c-2.477 0-4.488-.75-6.031-2.25s-2.313-3.356-2.313-5.575c0-2.257.793-4.129 2.379-5.605 1.586-1.477 3.641-2.215 6.16-2.215 2.52 0 4.539.738 6.059 2.215 1.523 1.476 2.305 3.348 2.347 5.605 0 2.215-.781 4.075-2.343 5.575zm55.531 53.609h-15.059v-24.184c0-6.82-2.519-10.23-7.558-10.23-1.914 0-3.52.531-4.824 1.598-1.305 1.062-2.282 2.355-2.934 3.875-.305.785-.457 2-.457 3.652v25.289h-15.055c.129-27.289.129-42.367 0-45.234h15.055v6.386c3.168-4.949 7.664-7.429 13.492-7.429 5.215 0 9.41 1.714 12.582 5.148s4.758 8.496 4.758 15.184z" fill="#323232" fill-rule="evenodd"/></svg>