<svg height="46" viewBox="0 0 46 46" width="46" xmlns="http://www.w3.org/2000/svg"><g fill="none" fill-rule="evenodd"><path d="m23 1.73205081 18.4185843 10.63397459v21.2679492l-18.4185843 10.6339746-18.41858429-10.6339746v-21.2679492z" stroke="#df853d" stroke-width="3" transform="matrix(0 1 -1 0 46 0)"/><path d="m23 8.94337567 12.1733938 7.02831213v14.0566244l-12.1733938 7.0283121-12.1733938-7.0283121v-14.0566244z" stroke="#df853d" stroke-width="2.5" transform="matrix(0 1 -1 0 46 0)"/><path d="m15.7782229 27.5 1.0684632-2.4932432 2.0554247-4.8322255 2.0545534 4.8322255 1.0553533 2.4932432h1.4879825l-3.7887837-9h-1.3634377l-3.8477786 9zm9.9641194 0v-4.5608108l4.0801802 4.5608108h1.6774775l-4.3072072-4.7067568 3.6576577-4.2932432h-1.3306307l-3.7774775 4.427027v-4.427027h-1.2423423v9z" fill="#323232" fill-rule="nonzero" stroke="#373737" stroke-width=".3"/></g></svg>